<mxfile host="app.diagrams.net" modified="2020-10-23T16:21:19.016Z" agent="5.0 (Macintosh; Intel Mac OS X 10_15_6) AppleWebKit/605.1.15 (KHTML, like Gecko) Version/14.0.1 Safari/605.1.15" etag="FhCpTtvfFhqpvXfig_C6" version="13.8.1" type="github">
  <diagram id="OJuoVzjoVTjFEiudczeg" name="Page-1">
    <mxGraphModel dx="818" dy="548" grid="1" gridSize="10" guides="1" tooltips="1" connect="1" arrows="1" fold="1" page="1" pageScale="1" pageWidth="827" pageHeight="1169" math="0" shadow="0">
      <root>
        <mxCell id="0" />
        <mxCell id="1" parent="0" />
        <mxCell id="PnK8fcyxHx7-ASZmiQ31-20" value="&lt;p style=&quot;margin: 0px ; margin-top: 4px ; margin-left: 5px ; text-align: left&quot;&gt;&lt;b&gt;Diagram class&lt;/b&gt;&lt;/p&gt;" style="html=1;shape=mxgraph.sysml.package;overflow=fill;labelX=95;align=left;spacingLeft=5;verticalAlign=top;spacingTop=-3;" vertex="1" parent="1">
          <mxGeometry width="830" height="840" as="geometry" />
        </mxCell>
        <mxCell id="PnK8fcyxHx7-ASZmiQ31-1" value="&lt;div&gt;&amp;lt;&amp;lt;Form&amp;gt;&amp;gt;&lt;/div&gt;&lt;div&gt;Form1&lt;/div&gt;" style="rounded=0;whiteSpace=wrap;html=1;align=center;" vertex="1" parent="1">
          <mxGeometry x="340" y="120" width="160" height="40" as="geometry" />
        </mxCell>
        <mxCell id="PnK8fcyxHx7-ASZmiQ31-2" value="" style="rounded=0;whiteSpace=wrap;html=1;" vertex="1" parent="1">
          <mxGeometry x="340" y="160" width="160" height="10" as="geometry" />
        </mxCell>
        <mxCell id="PnK8fcyxHx7-ASZmiQ31-3" value="command1Click()&lt;br&gt;command2Click()" style="rounded=0;whiteSpace=wrap;html=1;" vertex="1" parent="1">
          <mxGeometry x="340" y="170" width="160" height="40" as="geometry" />
        </mxCell>
        <mxCell id="PnK8fcyxHx7-ASZmiQ31-4" value="&amp;lt;&amp;lt;ADO Class&amp;gt;&amp;gt;&lt;br&gt;Author" style="rounded=0;whiteSpace=wrap;html=1;" vertex="1" parent="1">
          <mxGeometry x="240" y="340" width="140" height="40" as="geometry" />
        </mxCell>
        <mxCell id="PnK8fcyxHx7-ASZmiQ31-5" value="&amp;lt;&amp;lt;ADO Class&amp;gt;&amp;gt;&lt;br&gt;Authors" style="rounded=0;whiteSpace=wrap;html=1;" vertex="1" parent="1">
          <mxGeometry x="460" y="340" width="140" height="40" as="geometry" />
        </mxCell>
        <mxCell id="PnK8fcyxHx7-ASZmiQ31-11" value="" style="endArrow=open;dashed=1;html=1;endFill=0;entryX=0.852;entryY=0.007;entryDx=0;entryDy=0;entryPerimeter=0;endSize=11;exitX=0.374;exitY=1.007;exitDx=0;exitDy=0;exitPerimeter=0;" edge="1" parent="1" source="PnK8fcyxHx7-ASZmiQ31-3" target="PnK8fcyxHx7-ASZmiQ31-4">
          <mxGeometry width="50" height="50" relative="1" as="geometry">
            <mxPoint x="400" y="213" as="sourcePoint" />
            <mxPoint x="360" y="330" as="targetPoint" />
          </mxGeometry>
        </mxCell>
        <mxCell id="PnK8fcyxHx7-ASZmiQ31-13" value="" style="endArrow=open;dashed=1;html=1;endFill=0;endSize=10;entryX=0.142;entryY=-0.007;entryDx=0;entryDy=0;entryPerimeter=0;exitX=0.625;exitY=1.01;exitDx=0;exitDy=0;exitPerimeter=0;" edge="1" parent="1" source="PnK8fcyxHx7-ASZmiQ31-3" target="PnK8fcyxHx7-ASZmiQ31-5">
          <mxGeometry width="50" height="50" relative="1" as="geometry">
            <mxPoint x="444" y="209" as="sourcePoint" />
            <mxPoint x="500" y="260" as="targetPoint" />
          </mxGeometry>
        </mxCell>
        <mxCell id="PnK8fcyxHx7-ASZmiQ31-14" value="" style="rounded=0;whiteSpace=wrap;html=1;" vertex="1" parent="1">
          <mxGeometry x="240" y="380" width="140" height="10" as="geometry" />
        </mxCell>
        <mxCell id="PnK8fcyxHx7-ASZmiQ31-15" value="" style="rounded=0;whiteSpace=wrap;html=1;" vertex="1" parent="1">
          <mxGeometry x="460" y="380" width="140" height="10" as="geometry" />
        </mxCell>
        <mxCell id="PnK8fcyxHx7-ASZmiQ31-16" value="&lt;div&gt;eOF()&lt;/div&gt;&lt;div&gt;getOne()&lt;/div&gt;&lt;div&gt;query()&lt;/div&gt;&lt;div&gt;recordset()&lt;/div&gt;&lt;div&gt;name()&lt;/div&gt;&lt;div&gt;iD()&lt;/div&gt;&lt;div&gt;lName()&lt;/div&gt;&lt;div&gt;phone()&lt;/div&gt;&lt;div&gt;adress()&lt;/div&gt;&lt;div&gt;city()&lt;/div&gt;&lt;div&gt;state()&lt;/div&gt;&lt;div&gt;zip()&lt;/div&gt;&lt;div&gt;contract()&lt;/div&gt;&lt;div&gt;getNew()&lt;/div&gt;" style="rounded=0;whiteSpace=wrap;html=1;align=left;" vertex="1" parent="1">
          <mxGeometry x="240" y="390" width="140" height="210" as="geometry" />
        </mxCell>
        <mxCell id="PnK8fcyxHx7-ASZmiQ31-17" value="addNew()&lt;br&gt;bOF()&lt;br&gt;eOF()&lt;br&gt;getAll()&lt;br&gt;moveFirst()&lt;br&gt;moveLast()&lt;br&gt;moveNext()&lt;br&gt;movePrevious()&lt;br&gt;query()&lt;br&gt;recordset()&lt;br&gt;&lt;div&gt;name()&lt;/div&gt;&lt;div&gt;iD()&lt;/div&gt;&lt;div&gt;fName()&lt;/div&gt;&lt;div&gt;lName()&lt;/div&gt;&lt;div&gt;phone()&lt;/div&gt;&lt;div&gt;adress()&lt;/div&gt;&lt;div&gt;city()&lt;/div&gt;&lt;div&gt;zip()&lt;/div&gt;&lt;div&gt;contract()&lt;/div&gt;&lt;div&gt;getNew()&lt;/div&gt;" style="rounded=0;whiteSpace=wrap;html=1;align=left;" vertex="1" parent="1">
          <mxGeometry x="460" y="390" width="140" height="290" as="geometry" />
        </mxCell>
      </root>
    </mxGraphModel>
  </diagram>
</mxfile>
